<?xml version="1.0" encoding="UTF-8"?>
<svg width="206px" height="202px" viewBox="0 0 206 202" version="1.1" xmlns="http://www.w3.org/2000/svg" xmlns:xlink="http://www.w3.org/1999/xlink">
    <title>Group 8</title>
    <defs>
        <path d="M0,29.6155814 C66.0539374,9.87186046 99.0809061,0 99.0809061,0 C99.0809061,0 132.107875,9.87186046 198.161812,29.6155814 C189.71751,139.521427 156.690541,194.47435 99.0809061,194.47435 C41.471271,194.47435 8.44430233,139.521427 0,29.6155814 Z" id="path-1"></path>
        <linearGradient x1="82.1370868%" y1="131.897696%" x2="-272.649844%" y2="121.448088%" id="linearGradient-3">
            <stop stop-color="#FFFFFF" stop-opacity="0" offset="0%"></stop>
            <stop stop-color="#FFFFFF" offset="100%"></stop>
        </linearGradient>
        <linearGradient x1="82.1370868%" y1="232.632375%" x2="-272.649844%" y2="209.329682%" id="linearGradient-4">
            <stop stop-color="#FFFFFF" stop-opacity="0" offset="0%"></stop>
            <stop stop-color="#FFFFFF" offset="100%"></stop>
        </linearGradient>
        <linearGradient x1="82.1370868%" y1="72.0073703%" x2="-272.649844%" y2="69.1993743%" id="linearGradient-5">
            <stop stop-color="#FFFFFF" stop-opacity="0" offset="0%"></stop>
            <stop stop-color="#FFFFFF" offset="100%"></stop>
        </linearGradient>
        <linearGradient x1="82.1370868%" y1="165.785434%" x2="-272.649844%" y2="151.011972%" id="linearGradient-6">
            <stop stop-color="#FFFFFF" stop-opacity="0" offset="0%"></stop>
            <stop stop-color="#FFFFFF" offset="100%"></stop>
        </linearGradient>
        <linearGradient x1="82.1370868%" y1="166.265035%" x2="-272.649844%" y2="151.430379%" id="linearGradient-7">
            <stop stop-color="#FFFFFF" stop-opacity="0" offset="0%"></stop>
            <stop stop-color="#FFFFFF" offset="100%"></stop>
        </linearGradient>
        <linearGradient x1="82.1370868%" y1="50.411884%" x2="-272.649844%" y2="50.3593303%" id="linearGradient-8">
            <stop stop-color="#FFFFFF" stop-opacity="0" offset="0%"></stop>
            <stop stop-color="#FFFFFF" offset="100%"></stop>
        </linearGradient>
        <linearGradient x1="82.1370868%" y1="108.540962%" x2="-272.649844%" y2="101.071519%" id="linearGradient-9">
            <stop stop-color="#FFFFFF" stop-opacity="0" offset="0%"></stop>
            <stop stop-color="#FFFFFF" offset="100%"></stop>
        </linearGradient>
        <linearGradient x1="82.1370868%" y1="202.528391%" x2="-272.649844%" y2="183.066769%" id="linearGradient-10">
            <stop stop-color="#FFFFFF" stop-opacity="0" offset="0%"></stop>
            <stop stop-color="#FFFFFF" offset="100%"></stop>
        </linearGradient>
        <linearGradient x1="82.1370868%" y1="50.2846365%" x2="-272.649844%" y2="50.2483187%" id="linearGradient-11">
            <stop stop-color="#FFFFFF" stop-opacity="0" offset="0%"></stop>
            <stop stop-color="#FFFFFF" offset="100%"></stop>
        </linearGradient>
        <linearGradient x1="68.8302983%" y1="63.8220105%" x2="-74.5803129%" y2="74.770728%" id="linearGradient-12">
            <stop stop-color="#FFFFFF" stop-opacity="0" offset="0%"></stop>
            <stop stop-color="#FFFFFF" offset="100%"></stop>
        </linearGradient>
        <linearGradient x1="82.1370868%" y1="179.574592%" x2="-272.649844%" y2="163.041724%" id="linearGradient-13">
            <stop stop-color="#FFFFFF" stop-opacity="0" offset="0%"></stop>
            <stop stop-color="#FFFFFF" offset="100%"></stop>
        </linearGradient>
        <linearGradient x1="82.1370868%" y1="50.5004453%" x2="-272.649844%" y2="50.4365918%" id="linearGradient-14">
            <stop stop-color="#FFFFFF" stop-opacity="0" offset="0%"></stop>
            <stop stop-color="#FFFFFF" offset="100%"></stop>
        </linearGradient>
        <linearGradient x1="41.9041127%" y1="-44.4852711%" x2="82.6125797%" y2="-53.8927265%" id="linearGradient-15">
            <stop stop-color="#A0A0A0" offset="0%"></stop>
            <stop stop-color="#FFFFFF" offset="100%"></stop>
        </linearGradient>
    </defs>
    <g id="Page-2" stroke="none" stroke-width="1" fill="none" fill-rule="evenodd">
        <g id="Group-8" transform="translate(3.919094, 4.000000)">
            <g id="Group-5">
                <path d="M99.0809061,-1.62468428 L199.808798,28.483186 C195.625019,84.3767097 185.122805,126.224418 168.39257,154.061525 C151.554971,182.077274 128.432073,196.030984 99.0809061,196.030984 C69.7297396,196.030984 46.6068409,182.077274 29.769242,154.061525 C13.0390078,126.224418 2.53679315,84.3767097 -1.64698553,28.483186 L-1.64698553,28.483186 L99.0809061,-1.62468428 Z" id="Mask" stroke="#FFFFFF" stroke-width="3.113269" fill="#15283D" stroke-linejoin="round"></path>
                <mask id="mask-2" fill="white">
                    <use xlink:href="#path-1"></use>
                </mask>
                <path stroke="#FFFFFF" stroke-width="3.113269" d="M99.0809061,-1.62468428 L199.808798,28.483186 C195.625019,84.3767097 185.122805,126.224418 168.39257,154.061525 C151.554971,182.077274 128.432073,196.030984 99.0809061,196.030984 C69.7297396,196.030984 46.6068409,182.077274 29.769242,154.061525 C13.0390078,126.224418 2.53679315,84.3767097 -1.64698553,28.483186 L-1.64698553,28.483186 L99.0809061,-1.62468428 Z"></path>
                <g id="Group-2" mask="url(#mask-2)" fill-rule="nonzero">
                    <g transform="translate(-33.385537, -14.448856)">
                        <path d="M215.380543,82.1483172 C215.983703,81.5804359 216.93302,81.6090353 217.500901,82.2121956 C218.03329,82.7776585 218.041428,83.6473603 217.543377,84.2217839 L217.437022,84.332554 L189.977422,110.186031 L161.693935,110.186031 C160.865508,110.186031 160.193935,109.514458 160.193935,108.686031 C160.193935,107.906335 160.788823,107.265583 161.549475,107.192898 L161.693935,107.186031 L188.787,107.185453 L215.380543,82.1483172 Z" id="stripe-12" fill="url(#linearGradient-3)"></path>
                        <path d="M0.439339828,33.4314364 C0.988514613,32.8822616 1.85757702,32.8479382 2.44673776,33.3284661 L2.56066017,33.4314364 L76.315,107.185453 L103.382403,107.186031 C104.162099,107.186031 104.802851,107.780919 104.875536,108.541571 L104.882403,108.686031 C104.882403,109.465727 104.287514,110.10648 103.526863,110.179165 L103.382403,110.186031 L75.0726143,110.186031 L0.439339828,35.5527567 C-0.146446609,34.9669703 -0.146446609,34.0172228 0.439339828,33.4314364 Z" id="stripe-11" fill="url(#linearGradient-4)"></path>
                        <path d="M59.5,118.250453 C62.5503709,118.250453 65.1099799,120.351655 65.8104028,123.185634 L102.382403,123.186031 C103.21083,123.186031 103.882403,123.857604 103.882403,124.686031 C103.882403,125.465727 103.287514,126.10648 102.526863,126.179165 L102.382403,126.186031 L65.840931,126.186062 C65.1873676,129.085149 62.5965507,131.250453 59.5,131.250453 C55.9101491,131.250453 53,128.340304 53,124.750453 C53,121.160602 55.9101491,118.250453 59.5,118.250453 Z M59.5,121.250453 C57.5670034,121.250453 56,122.817456 56,124.750453 C56,126.68345 57.5670034,128.250453 59.5,128.250453 C61.4329966,128.250453 63,126.68345 63,124.750453 C63,122.817456 61.4329966,121.250453 59.5,121.250453 Z" id="strip-10" fill="url(#linearGradient-5)"></path>
                        <path d="M103.382403,139.186031 C104.21083,139.186031 104.882403,139.857604 104.882403,140.686031 C104.882403,141.465727 104.287514,142.10648 103.526863,142.179165 L103.382403,142.186031 L76.315,142.185453 L40.5581243,177.943162 C40.0089496,178.492337 39.1398871,178.52666 38.5507264,178.046132 L38.436804,177.943162 C37.8876292,177.393987 37.8533058,176.524925 38.3338337,175.935764 L38.436804,175.821842 L75.0726143,139.186031 L103.382403,139.186031 Z" id="stripe-9" fill="url(#linearGradient-6)"></path>
                        <path d="M197.714683,157.625371 C198.30047,157.039585 199.250217,157.039585 199.836004,157.625371 C200.385179,158.174546 200.419502,159.043608 199.938974,159.632769 L199.836004,159.746691 L163.003723,196.578972 L134.693935,196.578972 C133.865508,196.578972 133.193935,195.907399 133.193935,195.078972 C133.193935,194.299276 133.788823,193.658524 134.549475,193.585839 L134.693935,193.578972 L161.76,193.578453 L197.714683,157.625371 Z" id="stripe-8" fill="url(#linearGradient-7)" transform="translate(166.734639, 176.882502) rotate(90.000000) translate(-166.734639, -176.882502) "></path>
                        <path d="M173.953468,184.757096 C174.781895,184.757096 175.453468,185.428669 175.453468,186.257096 C175.453468,187.036793 174.85858,187.677545 174.097928,187.75023 L173.953468,187.757096 L91.1228695,187.757096 C90.2944424,187.757096 89.6228695,187.085524 89.6228695,186.257096 C89.6228695,185.4774 90.2177576,184.836648 90.9784095,184.763963 L91.1228695,184.757096 L173.953468,184.757096 Z" id="stripe-7" fill="url(#linearGradient-8)" transform="translate(132.538169, 186.257096) rotate(90.000000) translate(-132.538169, -186.257096) "></path>
                        <path d="M85.9138941,157.186031 L114.223682,157.186031 L131.443063,174.405412 C132.028849,174.991198 132.028849,175.940946 131.443063,176.526732 C130.893888,177.075907 130.024826,177.11023 129.435665,176.629702 L129.321742,176.526732 L112.98,160.185453 L85.9138941,160.186031 C85.134198,160.186031 84.4934454,159.591143 84.4207607,158.830491 L84.4138941,158.686031 C84.4138941,157.906335 85.0087822,157.265583 85.7694341,157.192898 L85.9138941,157.186031 Z" id="stripe-6" fill="url(#linearGradient-9)" transform="translate(108.148148, 167.076052) rotate(90.000000) translate(-108.148148, -167.076052) "></path>
                        <path d="M133.633275,33.7390158 C134.182449,33.189841 135.051512,33.1555176 135.640672,33.6360456 L135.754595,33.7390158 L189.201,87.185453 L216.268758,87.1860312 C217.048454,87.1860312 217.689206,87.7809193 217.761891,88.5415712 L217.768758,88.6860312 C217.768758,89.4657273 217.17387,90.1064799 216.413218,90.1791646 L216.268758,90.1860312 L187.95897,90.1860312 L133.633275,35.8603362 C133.047488,35.2745497 133.047488,34.3248023 133.633275,33.7390158 Z" id="stripe-5" fill="url(#linearGradient-10)" transform="translate(175.481346, 61.742854) rotate(90.000000) translate(-175.481346, -61.742854) "></path>
                        <path d="M81.6482625,53.1403591 C80.8198354,53.1403591 80.1482625,52.4687862 80.1482625,51.6403591 C80.1482625,50.860663 80.7431506,50.2199104 81.5038025,50.1472257 L81.6482625,50.1403591 L183.428075,50.139453 L183.428075,53.1403591 L81.6482625,53.1403591 Z" id="stripe-4" fill="url(#linearGradient-11)" transform="translate(131.788169, 51.639906) rotate(90.000000) translate(-131.788169, -51.639906) "></path>
                        <path d="M89.9664435,42.4488563 C93.5562944,42.4488563 96.4664435,45.3590054 96.4664435,48.9488563 C96.4664435,50.2941832 96.0577308,51.5440502 95.3576995,52.5810632 L118.038169,74.1993232 L118.038169,102.530268 C118.038169,103.358695 117.366596,104.030268 116.538169,104.030268 C115.758472,104.030268 115.11772,103.43538 115.045035,102.674728 L115.038169,102.530268 L115.038355,75.4837581 L93.1484458,54.6180613 C92.2079065,55.1471 91.1224145,55.4488563 89.9664435,55.4488563 C86.3765926,55.4488563 83.4664435,52.5387071 83.4664435,48.9488563 C83.4664435,45.3590054 86.3765926,42.4488563 89.9664435,42.4488563 Z M89.9664435,45.4488563 C88.0334469,45.4488563 86.4664435,47.0158596 86.4664435,48.9488563 C86.4664435,50.8818529 88.0334469,52.4488563 89.9664435,52.4488563 C90.7405561,52.4488563 91.4559712,52.1975427 92.0355514,51.772053 C92.0451403,51.75627 92.0558787,51.7419149 92.066909,51.7277094 L92.1671207,51.6113531 C92.2751112,51.4980603 92.3965905,51.40536 92.5266508,51.3333698 C93.1102871,50.7087613 93.4664435,49.8704012 93.4664435,48.9488563 C93.4664435,47.0158596 91.8994401,45.4488563 89.9664435,45.4488563 Z" id="stripe-3" fill="url(#linearGradient-12)"></path>
                        <path d="M161.693935,139.186031 L190.003723,139.186031 L232.60801,181.790318 C233.193796,182.376105 233.193796,183.325852 232.60801,183.911638 C232.058835,184.460813 231.189773,184.495137 230.600612,184.014609 L230.486689,183.911638 L188.76,142.185453 L161.693935,142.186031 C160.914239,142.186031 160.273486,141.591143 160.200801,140.830491 L160.193935,140.686031 C160.193935,139.906335 160.788823,139.265583 161.549475,139.192898 L161.693935,139.186031 Z" id="stripe-2" fill="url(#linearGradient-13)"></path>
                        <path d="M236.560546,123.186031 C237.388973,123.186031 238.060546,123.857604 238.060546,124.686031 C238.060546,125.465727 237.465658,126.10648 236.705006,126.179165 L236.560546,126.186031 L161.693935,126.186031 C160.865508,126.186031 160.193935,125.514458 160.193935,124.686031 C160.193935,123.906335 160.788823,123.265583 161.549475,123.192898 L161.693935,123.186031 L236.560546,123.186031 Z" id="stripe-1" fill="url(#linearGradient-14)"></path>
                    </g>
                </g>
            </g>
            <path d="M99.2618808,38.1974423 C116.253307,38.1974423 130.02758,51.5770846 130.02758,68.0817098 C130.02758,68.7714401 130.003524,69.4557129 129.956184,70.1337798 C130.00293,70.3309922 130.02758,70.536859 130.02758,70.7484831 L130.02758,111.719131 C130.02758,113.191949 128.833625,114.385905 127.360807,114.385905 L123.227984,114.385905 C121.755166,114.385905 120.561211,113.191949 120.561211,111.719131 L120.562278,89.64533 L120.561182,89.6454423 L120.561211,68.4496933 C120.561211,68.4255597 120.56089,68.401501 120.560253,68.3775212 L120.561211,68.0817098 L120.561211,68.0817098 C120.561211,56.7708478 111.21685,47.5799501 99.6176551,47.3954295 L99.2618808,47.3926015 C87.4985857,47.3926015 77.9625508,56.6554308 77.9625508,68.0817098 C77.9625508,68.302842 77.9661224,68.5231639 77.9732126,68.7426241 L68.50355,68.7429869 C68.4986515,68.523142 68.4961819,68.302706 68.4961819,68.0817098 C68.4961819,51.5770846 82.2704545,38.1974423 99.2618808,38.1974423 Z" id="Combined-Shape" fill="url(#linearGradient-15)"></path>
            <rect id="Rectangle" fill="#FF794E" x="62.3430421" y="82.9249152" width="73.4757282" height="52.6648356" rx="6"></rect>
            <path d="M103.049954,114.30957 L104.128222,91.2551685 L94.3211162,91.2551685 L95.3993844,114.30957 L103.049954,114.30957 Z M99.2503423,127.608211 C100.824956,127.608211 102.108609,127.137538 103.1013,126.196193 C104.093992,125.254848 104.590337,124.116676 104.590337,122.781677 C104.590337,121.412448 104.093992,120.25716 103.1013,119.315815 C102.108609,118.37447 100.824956,117.903797 99.2503423,117.903797 C97.6072669,117.903797 96.3064989,118.37447 95.3480383,119.315815 C94.3895777,120.25716 93.9103473,121.412448 93.9103473,122.781677 C93.9103473,124.116676 94.3895777,125.254848 95.3480383,126.196193 C96.3064989,127.137538 97.6072669,127.608211 99.2503423,127.608211 Z" id="!" fill="#000000" fill-rule="nonzero"></path>
        </g>
    </g>
</svg>