<?xml version="1.0" encoding="UTF-8"?>
<svg width="206px" height="202px" viewBox="0 0 206 202" version="1.1" xmlns="http://www.w3.org/2000/svg" xmlns:xlink="http://www.w3.org/1999/xlink">
    <title>Group 8</title>
    <defs>
        <path d="M0,29.6155814 C66.0539374,9.87186046 99.0809061,0 99.0809061,0 C99.0809061,0 132.107875,9.87186046 198.161812,29.6155814 C189.71751,139.521427 156.690541,194.47435 99.0809061,194.47435 C41.471271,194.47435 8.44430233,139.521427 0,29.6155814 Z" id="path-1"></path>
        <linearGradient x1="82.1370868%" y1="131.897696%" x2="-272.649844%" y2="121.448088%" id="linearGradient-3">
            <stop stop-color="#FFFFFF" stop-opacity="0" offset="0%"></stop>
            <stop stop-color="#FFFFFF" offset="100%"></stop>
        </linearGradient>
        <linearGradient x1="82.1370868%" y1="232.632375%" x2="-272.649844%" y2="209.329682%" id="linearGradient-4">
            <stop stop-color="#FFFFFF" stop-opacity="0" offset="0%"></stop>
            <stop stop-color="#FFFFFF" offset="100%"></stop>
        </linearGradient>
        <linearGradient x1="82.1370868%" y1="72.0073703%" x2="-272.649844%" y2="69.1993743%" id="linearGradient-5">
            <stop stop-color="#FFFFFF" stop-opacity="0" offset="0%"></stop>
            <stop stop-color="#FFFFFF" offset="100%"></stop>
        </linearGradient>
        <linearGradient x1="82.1370868%" y1="165.785434%" x2="-272.649844%" y2="151.011972%" id="linearGradient-6">
            <stop stop-color="#FFFFFF" stop-opacity="0" offset="0%"></stop>
            <stop stop-color="#FFFFFF" offset="100%"></stop>
        </linearGradient>
        <linearGradient x1="82.1370868%" y1="166.265035%" x2="-272.649844%" y2="151.430379%" id="linearGradient-7">
            <stop stop-color="#FFFFFF" stop-opacity="0" offset="0%"></stop>
            <stop stop-color="#FFFFFF" offset="100%"></stop>
        </linearGradient>
        <linearGradient x1="82.1370868%" y1="50.411884%" x2="-272.649844%" y2="50.3593303%" id="linearGradient-8">
            <stop stop-color="#FFFFFF" stop-opacity="0" offset="0%"></stop>
            <stop stop-color="#FFFFFF" offset="100%"></stop>
        </linearGradient>
        <linearGradient x1="82.1370868%" y1="108.540962%" x2="-272.649844%" y2="101.071519%" id="linearGradient-9">
            <stop stop-color="#FFFFFF" stop-opacity="0" offset="0%"></stop>
            <stop stop-color="#FFFFFF" offset="100%"></stop>
        </linearGradient>
        <linearGradient x1="82.1370868%" y1="202.528391%" x2="-272.649844%" y2="183.066769%" id="linearGradient-10">
            <stop stop-color="#FFFFFF" stop-opacity="0" offset="0%"></stop>
            <stop stop-color="#FFFFFF" offset="100%"></stop>
        </linearGradient>
        <linearGradient x1="82.1370868%" y1="50.2846365%" x2="-272.649844%" y2="50.2483187%" id="linearGradient-11">
            <stop stop-color="#FFFFFF" stop-opacity="0" offset="0%"></stop>
            <stop stop-color="#FFFFFF" offset="100%"></stop>
        </linearGradient>
        <linearGradient x1="68.8302983%" y1="63.8220105%" x2="-74.5803129%" y2="74.770728%" id="linearGradient-12">
            <stop stop-color="#FFFFFF" stop-opacity="0" offset="0%"></stop>
            <stop stop-color="#FFFFFF" offset="100%"></stop>
        </linearGradient>
        <linearGradient x1="82.1370868%" y1="50.0601506%" x2="-272.649844%" y2="50.0524758%" id="linearGradient-13">
            <stop stop-color="#FFFFFF" stop-opacity="0" offset="0%"></stop>
            <stop stop-color="#FFFFFF" offset="100%"></stop>
        </linearGradient>
        <linearGradient x1="82.1370868%" y1="179.574592%" x2="-272.649844%" y2="163.041724%" id="linearGradient-14">
            <stop stop-color="#FFFFFF" stop-opacity="0" offset="0%"></stop>
            <stop stop-color="#FFFFFF" offset="100%"></stop>
        </linearGradient>
        <linearGradient x1="41.9041127%" y1="-44.4852711%" x2="82.6125797%" y2="-53.8927265%" id="linearGradient-15">
            <stop stop-color="#A0A0A0" offset="0%"></stop>
            <stop stop-color="#FFFFFF" offset="100%"></stop>
        </linearGradient>
    </defs>
    <g id="Page-2" stroke="none" stroke-width="1" fill="none" fill-rule="evenodd">
        <g id="Group-8" transform="translate(3.919094, 4.000000)">
            <g id="Group-5">
                <path d="M99.0809061,-1.62468428 L199.808798,28.483186 C195.625019,84.3767097 185.122805,126.224418 168.39257,154.061525 C151.554971,182.077274 128.432073,196.030984 99.0809061,196.030984 C69.7297396,196.030984 46.6068409,182.077274 29.769242,154.061525 C13.0390078,126.224418 2.53679315,84.3767097 -1.64698553,28.483186 L-1.64698553,28.483186 L99.0809061,-1.62468428 Z" id="Mask" stroke="#FFFFFF" stroke-width="3.113269" fill="#15283D" stroke-linejoin="round"></path>
                <mask id="mask-2" fill="white">
                    <use xlink:href="#path-1"></use>
                </mask>
                <path stroke="#FFFFFF" stroke-width="3.113269" d="M99.0809061,-1.62468428 L199.808798,28.483186 C195.625019,84.3767097 185.122805,126.224418 168.39257,154.061525 C151.554971,182.077274 128.432073,196.030984 99.0809061,196.030984 C69.7297396,196.030984 46.6068409,182.077274 29.769242,154.061525 C13.0390078,126.224418 2.53679315,84.3767097 -1.64698553,28.483186 L-1.64698553,28.483186 L99.0809061,-1.62468428 Z"></path>
                <g id="Group-2" mask="url(#mask-2)">
                    <g transform="translate(-31.885537, -13.698403)">
                        <path d="M213.880543,81.3978641 C214.483703,80.8299829 215.43302,80.8585823 216.000901,81.4617426 C216.53329,82.0272054 216.541428,82.8969073 216.043377,83.4713309 L215.937022,83.582101 L188.477422,109.435578 L160.193935,109.435578 C159.365508,109.435578 158.693935,108.764005 158.693935,107.935578 C158.693935,107.155882 159.288823,106.51513 160.049475,106.442445 L160.193935,106.435578 L187.287,106.435 L213.880543,81.3978641 Z" id="Path" stroke="none" fill="url(#linearGradient-3)" fill-rule="nonzero"></path>
                        <path d="M-1.06066017,32.6809833 C-0.511485387,32.1318086 0.357577023,32.0974851 0.946737762,32.5780131 L1.06066017,32.6809833 L74.815,106.435 L101.882403,106.435578 C102.662099,106.435578 103.302851,107.030466 103.375536,107.791118 L103.382403,107.935578 C103.382403,108.715274 102.787514,109.356027 102.026863,109.428712 L101.882403,109.435578 L73.5726143,109.435578 L-1.06066017,34.8023037 C-1.64644661,34.2165172 -1.64644661,33.2667698 -1.06066017,32.6809833 Z" id="Path-Copy-3" stroke="none" fill="url(#linearGradient-4)" fill-rule="nonzero"></path>
                        <path d="M59,117.5 C62.0503709,117.5 64.6099799,119.601202 65.3104028,122.435181 L101.882403,122.435578 C102.71083,122.435578 103.382403,123.107151 103.382403,123.935578 C103.382403,124.715274 102.787514,125.356027 102.026863,125.428712 L101.882403,125.435578 L65.340931,125.435609 C64.6873676,128.334696 62.0965507,130.5 59,130.5 C55.4101491,130.5 52.5,127.589851 52.5,124 C52.5,120.410149 55.4101491,117.5 59,117.5 Z M59,120.5 C57.0670034,120.5 55.5,122.067003 55.5,124 C55.5,125.932997 57.0670034,127.5 59,127.5 C60.9329966,127.5 62.5,125.932997 62.5,124 C62.5,122.067003 60.9329966,120.5 59,120.5 Z" id="Combined-Shape" stroke="none" fill="url(#linearGradient-5)" fill-rule="nonzero"></path>
                        <path d="M101.882403,138.435578 C102.71083,138.435578 103.382403,139.107151 103.382403,139.935578 C103.382403,140.715274 102.787514,141.356027 102.026863,141.428712 L101.882403,141.435578 L74.815,141.435 L39.0581243,177.192709 C38.5089496,177.741884 37.6398871,177.776207 37.0507264,177.295679 L36.936804,177.192709 C36.3876292,176.643534 36.3533058,175.774472 36.8338337,175.185311 L36.936804,175.071389 L73.5726143,138.435578 L101.882403,138.435578 Z" id="Path-Copy-5" stroke="none" fill="url(#linearGradient-6)" fill-rule="nonzero"></path>
                        <path d="M196.214683,156.874918 C196.80047,156.289132 197.750217,156.289132 198.336004,156.874918 C198.885179,157.424093 198.919502,158.293155 198.438974,158.882316 L198.336004,158.996238 L161.503723,195.828519 L133.193935,195.828519 C132.365508,195.828519 131.693935,195.156946 131.693935,194.328519 C131.693935,193.548823 132.288823,192.908071 133.049475,192.835386 L133.193935,192.828519 L160.26,192.828 L196.214683,156.874918 Z" id="Path-Copy-3" stroke="none" fill="url(#linearGradient-7)" fill-rule="nonzero" transform="translate(165.234639, 176.132049) rotate(90.000000) translate(-165.234639, -176.132049) "></path>
                        <path d="M172.453468,184.006643 C173.281895,184.006643 173.953468,184.678216 173.953468,185.506643 C173.953468,186.286339 173.35858,186.927092 172.597928,186.999777 L172.453468,187.006643 L89.6228695,187.006643 C88.7944424,187.006643 88.1228695,186.335071 88.1228695,185.506643 C88.1228695,184.726947 88.7177576,184.086195 89.4784095,184.01351 L89.6228695,184.006643 L172.453468,184.006643 Z" id="Path-Copy-4" stroke="none" fill="url(#linearGradient-8)" fill-rule="nonzero" transform="translate(131.038169, 185.506643) rotate(90.000000) translate(-131.038169, -185.506643) "></path>
                        <path d="M84.4138941,156.435578 L112.723682,156.435578 L129.943063,173.654959 C130.528849,174.240745 130.528849,175.190493 129.943063,175.776279 C129.393888,176.325454 128.524826,176.359777 127.935665,175.879249 L127.821742,175.776279 L111.48,159.435 L84.4138941,159.435578 C83.634198,159.435578 82.9934454,158.84069 82.9207607,158.080038 L82.9138941,157.935578 C82.9138941,157.155882 83.5087822,156.51513 84.2694341,156.442445 L84.4138941,156.435578 Z" id="Path-Copy-5" stroke="none" fill="url(#linearGradient-9)" fill-rule="nonzero" transform="translate(106.648148, 166.325598) rotate(90.000000) translate(-106.648148, -166.325598) "></path>
                        <path d="M132.133275,32.9885628 C132.682449,32.439388 133.551512,32.4050646 134.140672,32.8855925 L134.254595,32.9885628 L187.701,86.435 L214.768758,86.4355782 C215.548454,86.4355782 216.189206,87.0304663 216.261891,87.7911182 L216.268758,87.9355782 C216.268758,88.7152743 215.67387,89.3560269 214.913218,89.4287116 L214.768758,89.4355782 L186.45897,89.4355782 L132.133275,35.1098831 C131.547488,34.5240967 131.547488,33.5743492 132.133275,32.9885628 Z" id="Path-Copy-3" stroke="none" fill="url(#linearGradient-10)" fill-rule="nonzero" transform="translate(173.981346, 60.992401) rotate(90.000000) translate(-173.981346, -60.992401) "></path>
                        <path d="M80.1482625,52.3899061 C79.3198354,52.3899061 78.6482625,51.7183332 78.6482625,50.8899061 C78.6482625,50.1102099 79.2431506,49.4694574 80.0038025,49.3967726 L80.1482625,49.3899061 L181.928075,49.389 L181.928075,52.3899061 L80.1482625,52.3899061 Z" id="Path-Copy-4" stroke="none" fill="url(#linearGradient-11)" fill-rule="nonzero" transform="translate(130.288169, 50.889453) rotate(90.000000) translate(-130.288169, -50.889453) "></path>
                        <path d="M88.4664435,41.6984032 C92.0562944,41.6984032 94.9664435,44.6085524 94.9664435,48.1984032 C94.9664435,49.5437302 94.5577308,50.7935972 93.8576995,51.8306101 L116.538169,73.4488702 L116.538169,101.779815 C116.538169,102.608242 115.866596,103.279815 115.038169,103.279815 C114.258472,103.279815 113.61772,102.684927 113.545035,101.924275 L113.538169,101.779815 L113.538355,74.7333051 L91.6484458,53.8676082 C90.7079065,54.396647 89.6224145,54.6984032 88.4664435,54.6984032 C84.8765926,54.6984032 81.9664435,51.7882541 81.9664435,48.1984032 C81.9664435,44.6085524 84.8765926,41.6984032 88.4664435,41.6984032 Z M88.4664435,44.6984032 C86.5334469,44.6984032 84.9664435,46.2654066 84.9664435,48.1984032 C84.9664435,50.1313999 86.5334469,51.6984032 88.4664435,51.6984032 C89.2405561,51.6984032 89.9559712,51.4470896 90.5355514,51.0215999 C90.5451403,51.005817 90.5558787,50.9914618 90.566909,50.9772564 L90.6671207,50.8609001 C90.7751112,50.7476073 90.8965905,50.654907 91.0266508,50.5829167 C91.6102871,49.9583083 91.9664435,49.1199481 91.9664435,48.1984032 C91.9664435,46.2654066 90.3994401,44.6984032 88.4664435,44.6984032 Z" id="Combined-Shape" stroke="none" fill="url(#linearGradient-12)" fill-rule="nonzero"></path>
                        <polyline id="Path-Copy" stroke="url(#linearGradient-13)" stroke-width="3" fill="none" stroke-linecap="round" points="160.193935 123.935578 187.882403 123.935578 235.060546 123.935578"></polyline>
                        <path d="M160.193935,138.435578 L188.503723,138.435578 L231.10801,181.039865 C231.693796,181.625652 231.693796,182.575399 231.10801,183.161185 C230.558835,183.71036 229.689773,183.744684 229.100612,183.264156 L228.986689,183.161185 L187.26,141.435 L160.193935,141.435578 C159.414239,141.435578 158.773486,140.84069 158.700801,140.080038 L158.693935,139.935578 C158.693935,139.155882 159.288823,138.51513 160.049475,138.442445 L160.193935,138.435578 Z" id="Path-Copy-2" stroke="none" fill="url(#linearGradient-14)" fill-rule="nonzero"></path>
                    </g>
                </g>
            </g>
            <path d="M99.2618808,38.1974423 C116.253307,38.1974423 130.02758,51.5770846 130.02758,68.0817098 C130.02758,68.7714401 130.003524,69.4557129 129.956184,70.1337798 C130.00293,70.3309922 130.02758,70.536859 130.02758,70.7484831 L130.02758,111.719131 C130.02758,113.191949 128.833625,114.385905 127.360807,114.385905 L123.227984,114.385905 C121.755166,114.385905 120.561211,113.191949 120.561211,111.719131 L120.562278,89.64533 L120.561182,89.6454423 L120.561211,68.4496933 C120.561211,68.4255597 120.56089,68.401501 120.560253,68.3775212 L120.561211,68.0817098 L120.561211,68.0817098 C120.561211,56.7708478 111.21685,47.5799501 99.6176551,47.3954295 L99.2618808,47.3926015 C87.4985857,47.3926015 77.9625508,56.6554308 77.9625508,68.0817098 C77.9625508,68.302842 77.9661224,68.5231639 77.9732126,68.7426241 L68.50355,68.7429869 C68.4986515,68.523142 68.4961819,68.302706 68.4961819,68.0817098 C68.4961819,51.5770846 82.2704545,38.1974423 99.2618808,38.1974423 Z" id="Combined-Shape" fill="url(#linearGradient-15)"></path>
            <rect id="Rectangle" fill="#FF794E" x="62.3430421" y="82.9249152" width="73.4757282" height="52.6648356" rx="6"></rect>
            <path d="M103.049954,114.30957 L104.128222,91.2551685 L94.3211162,91.2551685 L95.3993844,114.30957 L103.049954,114.30957 Z M99.2503423,127.608211 C100.824956,127.608211 102.108609,127.137538 103.1013,126.196193 C104.093992,125.254848 104.590337,124.116676 104.590337,122.781677 C104.590337,121.412448 104.093992,120.25716 103.1013,119.315815 C102.108609,118.37447 100.824956,117.903797 99.2503423,117.903797 C97.6072669,117.903797 96.3064989,118.37447 95.3480383,119.315815 C94.3895777,120.25716 93.9103473,121.412448 93.9103473,122.781677 C93.9103473,124.116676 94.3895777,125.254848 95.3480383,126.196193 C96.3064989,127.137538 97.6072669,127.608211 99.2503423,127.608211 Z" id="!" fill="#000000" fill-rule="nonzero"></path>
        </g>
    </g>
</svg>